<?xml version="1.0" encoding="utf-8"?>
<!-- Generator: Adobe Illustrator 25.2.3, SVG Export Plug-In . SVG Version: 6.00 Build 0)  -->
<svg version="1.1" id="Layer_1" xmlns="http://www.w3.org/2000/svg" xmlns:xlink="http://www.w3.org/1999/xlink" x="0px" y="0px"
	 viewBox="0 0 66 52" style="enable-background:new 0 0 66 52;" xml:space="preserve">
<style type="text/css">
	.Drop_x0020_Shadow{fill:none;}
	.Outer_x0020_Glow_x0020_5_x0020_pt{fill:none;}
	.Blue_x0020_Neon{fill:none;stroke:#8AACDA;stroke-width:7;stroke-linecap:round;stroke-linejoin:round;}
	.Chrome_x0020_Highlight{fill:url(#SVGID_1_);stroke:#FFFFFF;stroke-width:0.3629;stroke-miterlimit:1;}
	.Jive_GS{fill:#FFDD00;}
	.Alyssa_GS{fill:#A6D0E4;}
	.st0{fill:none;stroke:#000000;stroke-width:9;stroke-miterlimit:10;}
	.st1{fill:none;stroke:#000000;stroke-width:9;stroke-linecap:round;stroke-miterlimit:10;}
	.st2{stroke:#000000;stroke-width:9;stroke-miterlimit:10;}
	.st3{stroke:#000000;stroke-width:8;stroke-miterlimit:10;}
	.st4{fill:none;stroke:#000000;stroke-width:8.8532;stroke-miterlimit:10;}
	.st5{fill:#FFFFFF;}
	.st6{fill:none;stroke:#000000;stroke-width:8.861;stroke-miterlimit:10;}
	.st7{fill:none;stroke:#000000;stroke-width:14.1154;stroke-miterlimit:10;}
	.st8{fill:#FFFFFF;stroke:#000000;stroke-width:9;stroke-miterlimit:10;}
	.st9{fill:none;stroke:#000000;stroke-width:8.7373;stroke-miterlimit:10;}
	.st10{fill:none;stroke:#000000;stroke-width:7.5658;stroke-miterlimit:10;}
	.st11{fill:none;stroke:#000000;stroke-width:9;stroke-linejoin:round;stroke-miterlimit:10;}
	.st12{fill:none;stroke:#000000;stroke-width:9;stroke-linecap:round;stroke-linejoin:round;stroke-miterlimit:10;}
	.st13{fill:none;stroke:#000000;stroke-width:9.7267;stroke-miterlimit:10;}
	.st14{fill:none;stroke:#000000;stroke-width:9.4391;stroke-miterlimit:10;}
	.st15{fill:none;stroke:#000000;stroke-width:7.7688;stroke-miterlimit:10;}
	.st16{stroke:#000000;stroke-width:9.1543;stroke-miterlimit:10;}
	.st17{clip-path:url(#SVGID_3_);stroke:#000000;stroke-width:12.5244;stroke-miterlimit:10;}
	.st18{clip-path:url(#SVGID_3_);fill:none;stroke:#000000;stroke-width:12.5244;stroke-miterlimit:10;}
	.st19{clip-path:url(#SVGID_5_);stroke:#000000;stroke-width:12.5244;stroke-miterlimit:10;}
	.st20{clip-path:url(#SVGID_5_);fill:none;stroke:#000000;stroke-width:12.5244;stroke-miterlimit:10;}
	.st21{stroke:#000000;stroke-width:9.1781;stroke-miterlimit:10;}
	.st22{fill:none;stroke:#000000;stroke-width:9.1781;stroke-miterlimit:10;}
	.st23{clip-path:url(#SVGID_7_);stroke:#000000;stroke-width:12.5244;stroke-miterlimit:10;}
	.st24{clip-path:url(#SVGID_7_);fill:none;stroke:#000000;stroke-width:12.5244;stroke-miterlimit:10;}
	.st25{fill:none;stroke:#000000;stroke-width:2;stroke-miterlimit:10;}
	.st26{fill:none;stroke:#000000;stroke-width:2;stroke-linecap:round;stroke-miterlimit:10;}
	.st27{stroke:#000000;stroke-width:2;stroke-miterlimit:10;}
	.st28{fill:none;stroke:#000000;stroke-width:1.71;stroke-miterlimit:10;}
	.st29{stroke:#000000;stroke-width:1.71;stroke-miterlimit:10;}
	.st30{fill:none;stroke:#000000;stroke-width:1.6836;stroke-miterlimit:10;}
	.st31{fill:none;stroke:#000000;stroke-width:2.6819;stroke-miterlimit:10;}
	.st32{fill:none;stroke:#000000;stroke-width:1.71;stroke-linecap:round;stroke-miterlimit:10;}
	.st33{fill:#FFFFFF;stroke:#000000;stroke-width:1.71;stroke-miterlimit:10;}
	.st34{fill:none;stroke:#000000;stroke-width:1.6601;stroke-miterlimit:10;}
	.st35{fill:none;stroke:#000000;stroke-width:1.4375;stroke-miterlimit:10;}
	.st36{fill:none;stroke:#000000;stroke-width:1.71;stroke-linejoin:round;stroke-miterlimit:10;}
	.st37{fill:none;stroke:#000000;stroke-width:1.71;stroke-linecap:round;stroke-linejoin:round;stroke-miterlimit:10;}
	.st38{fill:none;stroke:#000000;stroke-width:1.8481;stroke-miterlimit:10;}
	.st39{fill:none;stroke:#000000;stroke-width:1.6821;stroke-miterlimit:10;}
	.st40{fill:none;stroke:#000000;stroke-width:1.7934;stroke-miterlimit:10;}
	.st41{fill:none;stroke:#000000;stroke-width:1.4761;stroke-miterlimit:10;}
	.st42{fill:none;stroke:#000000;stroke-width:2;stroke-linecap:round;stroke-linejoin:round;stroke-miterlimit:10;}
	.st43{fill:none;stroke:#000000;stroke-width:2;stroke-linejoin:round;stroke-miterlimit:10;}
	.st44{clip-path:url(#SVGID_9_);stroke:#000000;stroke-width:2;stroke-miterlimit:10;}
	.st45{clip-path:url(#SVGID_9_);fill:none;stroke:#000000;stroke-width:2;stroke-miterlimit:10;}
	.st46{clip-path:url(#SVGID_11_);stroke:#000000;stroke-width:2;stroke-miterlimit:10;}
	.st47{clip-path:url(#SVGID_11_);fill:none;stroke:#000000;stroke-width:2;stroke-miterlimit:10;}
	.st48{clip-path:url(#SVGID_13_);stroke:#000000;stroke-width:2;stroke-miterlimit:10;}
	.st49{clip-path:url(#SVGID_13_);fill:none;stroke:#000000;stroke-width:2;stroke-miterlimit:10;}
	.st50{fill:none;stroke:#FFFFFF;stroke-width:8.8532;stroke-miterlimit:10;}
	.st51{stroke:#000000;stroke-width:5.2;stroke-miterlimit:10;}
	.st52{fill:#FFFFFF;stroke:#000000;stroke-width:2;stroke-miterlimit:10;}
	.st53{fill:none;stroke:#FFFFFF;stroke-width:1.6821;stroke-miterlimit:10;}
	.st54{fill:none;stroke:#000000;stroke-width:10.5085;stroke-miterlimit:10;}
</style>
<linearGradient id="SVGID_1_" gradientUnits="userSpaceOnUse" x1="3308.0337" y1="-4262.2754" x2="3308.0337" y2="-4263.2754">
	<stop  offset="0" style="stop-color:#656565"/>
	<stop  offset="0.618" style="stop-color:#1B1B1B"/>
	<stop  offset="0.6292" style="stop-color:#545454"/>
	<stop  offset="0.9831" style="stop-color:#3E3E3E"/>
</linearGradient>
<g>
	<g>
		<g>
			<line class="st25" x1="4.1" y1="48.2" x2="61.5" y2="48.2"/>
			<circle class="st25" cx="13" cy="42.2" r="5.3"/>
			<path class="st27" d="M56.3,42.2c0,2.9-2.4,5.3-5.3,5.3s-5.3-2.4-5.3-5.3H56.3z"/>
			<path class="st27" d="M29.6,42.2c0,2.9-2.4,5.3-5.3,5.3s-5.3-2.4-5.3-5.3H29.6z"/>
			<circle class="st25" cx="38.5" cy="42.2" r="5.3"/>
			<path class="st25" d="M45.7,42.2H58c2,0,3.5-1.6,3.5-3.5v-9l-12-1.9L47,17.8c-0.3-1.2-1.4-2-2.6-2H8.7c-1.5,0-2.8,1.1-3,2.6
				l-1.5,9.2v11.1c0,1.9,1.5,3.4,3.4,3.4h0.7"/>
			<path class="st25" d="M45.4,42.2V30.9c0-0.8-0.6-1.5-1.3-1.6l-8.8-1.7l-2.3-11.8v-4"/>
			<line class="st25" x1="27" y1="15.8" x2="27" y2="11.8"/>
			<line class="st25" x1="21" y1="15.8" x2="21" y2="11.8"/>
			<line class="st25" x1="14.9" y1="15.8" x2="14.9" y2="11.8"/>
			<line class="st25" x1="44.3" y1="15.8" x2="44.3" y2="11.8"/>
			<line class="st25" x1="8.8" y1="15.8" x2="8.8" y2="11.8"/>
			<line class="st25" x1="19.2" y1="42.2" x2="33.1" y2="42.2"/>
			<circle cx="55.1" cy="33.9" r="1.5"/>
			<path d="M40.6,42.2c0,1.3-0.8,2.3-2.1,2.3c-1.3,0-2.3-1-2.3-2.3c0-1.3,1-2.3,2.3-2.3C39.8,39.9,40.6,40.9,40.6,42.2z"/>
			<path d="M15.2,42.2c0,1.3-0.8,2.3-2.1,2.3s-2.3-1-2.3-2.3c0-1.3,1-2.3,2.3-2.3S15.2,40.9,15.2,42.2z"/>
			<circle cx="49.8" cy="33.9" r="2.3"/>
			<path d="M61.9,32.2c-0.4-0.3-0.9-0.5-1.4-0.5c-1.3,0-2.3,1-2.3,2.3s1,2.3,2.3,2.3c0.5,0,1-0.2,1.4-0.5V32.2z"/>
			<line class="st25" x1="5" y1="27.7" x2="49.7" y2="27.7"/>
			<polyline class="st25" points="61,29.6 45.4,29.6 43.8,28.6 51.7,28.6 			"/>
			<line class="st25" x1="42.1" y1="38.3" x2="61.5" y2="38.3"/>
			<line class="st25" x1="13.1" y1="16.6" x2="13.1" y2="33"/>
			<polyline class="st25" points="23.7,16.6 23.7,27.7 23.9,42.3 			"/>
			<line class="st25" x1="35.2" y1="27.7" x2="35.2" y2="33"/>
			<line class="st25" x1="31.7" y1="38.3" x2="16.9" y2="38.3"/>
			<line class="st25" x1="9.2" y1="38.3" x2="4.9" y2="38.3"/>
			<path class="st25" d="M45.4,37.2l-2.3-2.3c-0.7-0.7-1.7-1.1-2.7-1.1h-5.8c0,0,0,0,0,0c-1.4,0-2.5,1.2-2.5,2.6v5.7"/>
			<path class="st25" d="M4.1,38.3L8,34.5c0.7-0.7,1.7-1.1,2.7-1.1h4.7c1,0,2,0.4,2.7,1.1l3.8,3.8"/>
			<path class="st25" d="M42.6,10.5L42.6,10.5c0.7-0.7,1.1-1.7,1.1-2.7v0C43.7,5.7,42,4,39.9,4H24.3H13.1C11,4,9.3,5.7,9.3,7.8v0
				c0,1,0.4,2,1.1,2.7l0,0c0.6,0.6,1.4,1,2.3,1l27.5,0C41.2,11.4,42,11.1,42.6,10.5z"/>
			<path class="st25" d="M60.1,18.5h-7.9c-0.8,0-1.4-0.6-1.4-1.4V5.4c0-0.8,0.6-1.4,1.4-1.4h7.9c0.8,0,1.4,0.6,1.4,1.4v11.6
				C61.5,17.8,60.9,18.5,60.1,18.5z"/>
			<line class="st25" x1="56.1" y1="18.7" x2="56.1" y2="28"/>
			<path class="st25" d="M54.5,15.5V8.1h1.8c1,0,1.8,0.8,1.8,1.8v0c0,1-0.8,1.8-1.8,1.8H55"/>
			<line class="st25" x1="5.5" y1="11.4" x2="47.5" y2="11.4"/>
			<circle cx="23.6" cy="5.3" r="1.5"/>
		</g>
	</g>
</g>
</svg>
