<?xml version="1.0" encoding="utf-8"?>
<!-- Generator: Adobe Illustrator 25.2.3, SVG Export Plug-In . SVG Version: 6.00 Build 0)  -->
<svg version="1.1" id="Layer_1" xmlns="http://www.w3.org/2000/svg" xmlns:xlink="http://www.w3.org/1999/xlink" x="0px" y="0px"
	 viewBox="0 0 66 52" style="enable-background:new 0 0 66 52;" xml:space="preserve">
<style type="text/css">
	.Drop_x0020_Shadow{fill:none;}
	.Outer_x0020_Glow_x0020_5_x0020_pt{fill:none;}
	.Blue_x0020_Neon{fill:none;stroke:#8AACDA;stroke-width:7;stroke-linecap:round;stroke-linejoin:round;}
	.Chrome_x0020_Highlight{fill:url(#SVGID_1_);stroke:#FFFFFF;stroke-width:0.3629;stroke-miterlimit:1;}
	.Jive_GS{fill:#FFDD00;}
	.Alyssa_GS{fill:#A6D0E4;}
	.st0{fill:none;stroke:#000000;stroke-width:9;stroke-miterlimit:10;}
	.st1{fill:none;stroke:#000000;stroke-width:9;stroke-linecap:round;stroke-miterlimit:10;}
	.st2{stroke:#000000;stroke-width:9;stroke-miterlimit:10;}
	.st3{stroke:#000000;stroke-width:8;stroke-miterlimit:10;}
	.st4{fill:none;stroke:#000000;stroke-width:8.8532;stroke-miterlimit:10;}
	.st5{fill:#FFFFFF;}
	.st6{fill:none;stroke:#000000;stroke-width:8.861;stroke-miterlimit:10;}
	.st7{fill:none;stroke:#000000;stroke-width:14.1154;stroke-miterlimit:10;}
	.st8{fill:#FFFFFF;stroke:#000000;stroke-width:9;stroke-miterlimit:10;}
	.st9{fill:none;stroke:#000000;stroke-width:8.7373;stroke-miterlimit:10;}
	.st10{fill:none;stroke:#000000;stroke-width:7.5658;stroke-miterlimit:10;}
	.st11{fill:none;stroke:#000000;stroke-width:9;stroke-linejoin:round;stroke-miterlimit:10;}
	.st12{fill:none;stroke:#000000;stroke-width:9;stroke-linecap:round;stroke-linejoin:round;stroke-miterlimit:10;}
	.st13{fill:none;stroke:#000000;stroke-width:9.7267;stroke-miterlimit:10;}
	.st14{fill:none;stroke:#000000;stroke-width:9.4391;stroke-miterlimit:10;}
	.st15{fill:none;stroke:#000000;stroke-width:7.7688;stroke-miterlimit:10;}
	.st16{stroke:#000000;stroke-width:9.1543;stroke-miterlimit:10;}
	.st17{clip-path:url(#SVGID_3_);stroke:#000000;stroke-width:12.5244;stroke-miterlimit:10;}
	.st18{clip-path:url(#SVGID_3_);fill:none;stroke:#000000;stroke-width:12.5244;stroke-miterlimit:10;}
	.st19{clip-path:url(#SVGID_5_);stroke:#000000;stroke-width:12.5244;stroke-miterlimit:10;}
	.st20{clip-path:url(#SVGID_5_);fill:none;stroke:#000000;stroke-width:12.5244;stroke-miterlimit:10;}
	.st21{stroke:#000000;stroke-width:9.1781;stroke-miterlimit:10;}
	.st22{fill:none;stroke:#000000;stroke-width:9.1781;stroke-miterlimit:10;}
	.st23{clip-path:url(#SVGID_7_);stroke:#000000;stroke-width:12.5244;stroke-miterlimit:10;}
	.st24{clip-path:url(#SVGID_7_);fill:none;stroke:#000000;stroke-width:12.5244;stroke-miterlimit:10;}
	.st25{fill:none;stroke:#000000;stroke-width:2;stroke-miterlimit:10;}
	.st26{fill:none;stroke:#000000;stroke-width:2;stroke-linecap:round;stroke-miterlimit:10;}
	.st27{stroke:#000000;stroke-width:2;stroke-miterlimit:10;}
	.st28{fill:none;stroke:#000000;stroke-width:1.71;stroke-miterlimit:10;}
	.st29{stroke:#000000;stroke-width:1.71;stroke-miterlimit:10;}
	.st30{fill:none;stroke:#000000;stroke-width:1.6836;stroke-miterlimit:10;}
	.st31{fill:none;stroke:#000000;stroke-width:2.6819;stroke-miterlimit:10;}
	.st32{fill:none;stroke:#000000;stroke-width:1.71;stroke-linecap:round;stroke-miterlimit:10;}
	.st33{fill:#FFFFFF;stroke:#000000;stroke-width:1.71;stroke-miterlimit:10;}
	.st34{fill:none;stroke:#000000;stroke-width:1.6601;stroke-miterlimit:10;}
	.st35{fill:none;stroke:#000000;stroke-width:1.4375;stroke-miterlimit:10;}
	.st36{fill:none;stroke:#000000;stroke-width:1.71;stroke-linejoin:round;stroke-miterlimit:10;}
	.st37{fill:none;stroke:#000000;stroke-width:1.71;stroke-linecap:round;stroke-linejoin:round;stroke-miterlimit:10;}
	.st38{fill:none;stroke:#000000;stroke-width:1.8481;stroke-miterlimit:10;}
	.st39{fill:none;stroke:#000000;stroke-width:1.6821;stroke-miterlimit:10;}
	.st40{fill:none;stroke:#000000;stroke-width:1.7934;stroke-miterlimit:10;}
	.st41{fill:none;stroke:#000000;stroke-width:1.4761;stroke-miterlimit:10;}
	.st42{fill:none;stroke:#000000;stroke-width:2;stroke-linecap:round;stroke-linejoin:round;stroke-miterlimit:10;}
	.st43{fill:none;stroke:#000000;stroke-width:2;stroke-linejoin:round;stroke-miterlimit:10;}
	.st44{clip-path:url(#SVGID_9_);stroke:#000000;stroke-width:2;stroke-miterlimit:10;}
	.st45{clip-path:url(#SVGID_9_);fill:none;stroke:#000000;stroke-width:2;stroke-miterlimit:10;}
	.st46{clip-path:url(#SVGID_11_);stroke:#000000;stroke-width:2;stroke-miterlimit:10;}
	.st47{clip-path:url(#SVGID_11_);fill:none;stroke:#000000;stroke-width:2;stroke-miterlimit:10;}
	.st48{clip-path:url(#SVGID_13_);stroke:#000000;stroke-width:2;stroke-miterlimit:10;}
	.st49{clip-path:url(#SVGID_13_);fill:none;stroke:#000000;stroke-width:2;stroke-miterlimit:10;}
	.st50{fill:none;stroke:#FFFFFF;stroke-width:8.8532;stroke-miterlimit:10;}
	.st51{stroke:#000000;stroke-width:5.2;stroke-miterlimit:10;}
	.st52{fill:#FFFFFF;stroke:#000000;stroke-width:2;stroke-miterlimit:10;}
	.st53{fill:none;stroke:#FFFFFF;stroke-width:1.6821;stroke-miterlimit:10;}
	.st54{fill:none;stroke:#000000;stroke-width:10.5085;stroke-miterlimit:10;}
</style>
<linearGradient id="SVGID_1_" gradientUnits="userSpaceOnUse" x1="3483.7981" y1="-4567.2158" x2="3483.7981" y2="-4568.2158">
	<stop  offset="0" style="stop-color:#656565"/>
	<stop  offset="0.618" style="stop-color:#1B1B1B"/>
	<stop  offset="0.6292" style="stop-color:#545454"/>
	<stop  offset="0.9831" style="stop-color:#3E3E3E"/>
</linearGradient>
<g>
	<line class="st28" x1="13.7" y1="49.4" x2="55.2" y2="49.4"/>
	<g>
		<g>
			<g>
				<path class="st28" d="M34.4,9.7c8.3,0,13.9,6.7,13.9,15s-5.6,15-13.9,15s-13.9-6.7-13.9-15l0,0c0-8.3,5.3-15,13.6-15H34.4h3.5
					c3.1,0,5.7-2.7,5.7-5.9"/>
				<g>
					<g>
						<circle class="st28" cx="28.2" cy="25.2" r="0.7"/>
					</g>
					<g>
						<circle class="st28" cx="41.7" cy="25.2" r="0.7"/>
					</g>
					<g>
						<circle class="st28" cx="34.4" cy="27.8" r="0.7"/>
					</g>
				</g>
				<path class="st28" d="M47.6,30.9c2.6,0.3,4.9-1.7,5.1-4.4c0.3-5.4-2.1-4.6-4.4-4.8"/>
				<path class="st28" d="M21.2,30.9c-2.6,0.3-4.9-1.7-5.1-4.4c-0.3-5.4,2.1-4.6,4.4-4.8"/>
			</g>
			<path class="st28" d="M34,9.7L34,9.7c1.5,0,2.9-0.7,3.7-1.9c0.6-0.8,0.9-1.8,0.9-2.8l0-1.1"/>
			<path class="st28" d="M36.9,9.9c1.9,1.9,1.8,4.9-0.2,6.7c-1.8,1.6-4.8,1.4-6.5-0.4l-0.4-0.4"/>
			<path class="st28" d="M39,29.7c0,2.5-2.1,4.6-4.6,4.6c-2.5,0-4.6-2.1-4.6-4.6"/>
			<path class="st28" d="M43.8,22c-0.6-0.5-1.3-0.7-2.2-0.7c-0.8,0-1.6,0.3-2.2,0.7"/>
			<path class="st28" d="M30.4,22c-0.6-0.5-1.3-0.7-2.2-0.7c-0.8,0-1.6,0.3-2.2,0.7"/>
		</g>
	</g>
	<path class="st28" d="M39.5,38.9c-3.6,1.5-5.8,1.6-8.9,3.2C27.5,43.7,24.7,46,23,49"/>
	<path class="st28" d="M15.9,39c3.7,0.8,7.8,2.6,10.2,5.3"/>
	<path class="st28" d="M51.6,49.2c2.2-4.4,2.1-10.2,1.9-15.1"/>
	<path class="st28" d="M48.4,35.1c3.1,0.8,6.3-1,7.1-4.1c0.6-2.1-0.1-4.2-1.5-5.6c1.8-0.6,3.4-2,3.9-4c0.8-3.1-1-6.2-4-7.1
		c0.5-0.6,1-1.4,1.2-2.3c0.8-3.1-1-6.3-4.1-7.1c-0.5-0.1-1-0.2-1.4-0.2"/>
	<path class="st28" d="M17.4,49.2c-2.2-4.4-2.1-10.2-1.9-15.1"/>
	<path class="st28" d="M20.6,35.1c-3.1,0.8-6.3-1-7.1-4.1C13,29,13.6,26.9,15,25.4c-1.8-0.6-3.4-2-3.9-4c-0.8-3.1,1-6.2,4-7.1
		c-0.5-0.6-1-1.4-1.2-2.3c-0.8-3.1,1-6.3,4.1-7.1c0.5-0.1,1-0.2,1.4-0.2"/>
	<path class="st28" d="M22.2,41c1.1-1.7,2.7-2.9,4.5-3.5"/>
	<path class="st28" d="M38,49.3c1.6-1.4,4.8-2.3,7.6-3.3c3.2-1.2,7-3.4,8-6.9"/>
	<polygon points="22.2,41 24.4,38.7 26.8,37.6 33.1,40.3 26.4,44.9 	"/>
</g>
</svg>
