<?xml version="1.0" encoding="utf-8"?>
<!-- Generator: Adobe Illustrator 25.2.3, SVG Export Plug-In . SVG Version: 6.00 Build 0)  -->
<svg version="1.1" id="Layer_1" xmlns="http://www.w3.org/2000/svg" xmlns:xlink="http://www.w3.org/1999/xlink" x="0px" y="0px"
	 viewBox="0 0 68.7 52" style="enable-background:new 0 0 68.7 52;" xml:space="preserve">
<style type="text/css">
	.Drop_x0020_Shadow{fill:none;}
	.Outer_x0020_Glow_x0020_5_x0020_pt{fill:none;}
	.Blue_x0020_Neon{fill:none;stroke:#8AACDA;stroke-width:7;stroke-linecap:round;stroke-linejoin:round;}
	.Chrome_x0020_Highlight{fill:url(#SVGID_1_);stroke:#FFFFFF;stroke-width:0.3629;stroke-miterlimit:1;}
	.Jive_GS{fill:#FFDD00;}
	.Alyssa_GS{fill:#A6D0E4;}
	.st0{fill:none;stroke:#000000;stroke-width:9;stroke-miterlimit:10;}
	.st1{fill:none;stroke:#000000;stroke-width:9;stroke-linecap:round;stroke-miterlimit:10;}
	.st2{stroke:#000000;stroke-width:9;stroke-miterlimit:10;}
	.st3{stroke:#000000;stroke-width:8;stroke-miterlimit:10;}
	.st4{fill:none;stroke:#000000;stroke-width:8.8532;stroke-miterlimit:10;}
	.st5{fill:#FFFFFF;}
	.st6{fill:none;stroke:#000000;stroke-width:8.861;stroke-miterlimit:10;}
	.st7{fill:none;stroke:#000000;stroke-width:14.1154;stroke-miterlimit:10;}
	.st8{fill:#FFFFFF;stroke:#000000;stroke-width:9;stroke-miterlimit:10;}
	.st9{fill:none;stroke:#000000;stroke-width:8.7373;stroke-miterlimit:10;}
	.st10{fill:none;stroke:#000000;stroke-width:7.5658;stroke-miterlimit:10;}
	.st11{fill:none;stroke:#000000;stroke-width:9;stroke-linejoin:round;stroke-miterlimit:10;}
	.st12{fill:none;stroke:#000000;stroke-width:9;stroke-linecap:round;stroke-linejoin:round;stroke-miterlimit:10;}
	.st13{fill:none;stroke:#000000;stroke-width:9.7267;stroke-miterlimit:10;}
	.st14{fill:none;stroke:#000000;stroke-width:9.4391;stroke-miterlimit:10;}
	.st15{fill:none;stroke:#000000;stroke-width:7.7688;stroke-miterlimit:10;}
	.st16{stroke:#000000;stroke-width:9.1543;stroke-miterlimit:10;}
	.st17{clip-path:url(#SVGID_3_);stroke:#000000;stroke-width:12.5244;stroke-miterlimit:10;}
	.st18{clip-path:url(#SVGID_3_);fill:none;stroke:#000000;stroke-width:12.5244;stroke-miterlimit:10;}
	.st19{clip-path:url(#SVGID_5_);stroke:#000000;stroke-width:12.5244;stroke-miterlimit:10;}
	.st20{clip-path:url(#SVGID_5_);fill:none;stroke:#000000;stroke-width:12.5244;stroke-miterlimit:10;}
	.st21{stroke:#000000;stroke-width:9.1781;stroke-miterlimit:10;}
	.st22{fill:none;stroke:#000000;stroke-width:9.1781;stroke-miterlimit:10;}
	.st23{clip-path:url(#SVGID_7_);stroke:#000000;stroke-width:12.5244;stroke-miterlimit:10;}
	.st24{clip-path:url(#SVGID_7_);fill:none;stroke:#000000;stroke-width:12.5244;stroke-miterlimit:10;}
	.st25{fill:none;stroke:#000000;stroke-width:2;stroke-miterlimit:10;}
	.st26{fill:none;stroke:#000000;stroke-width:2;stroke-linecap:round;stroke-miterlimit:10;}
	.st27{stroke:#000000;stroke-width:2;stroke-miterlimit:10;}
	.st28{fill:none;stroke:#000000;stroke-width:1.71;stroke-miterlimit:10;}
	.st29{stroke:#000000;stroke-width:1.71;stroke-miterlimit:10;}
	.st30{fill:none;stroke:#000000;stroke-width:1.6836;stroke-miterlimit:10;}
	.st31{fill:none;stroke:#000000;stroke-width:2.6819;stroke-miterlimit:10;}
	.st32{fill:none;stroke:#000000;stroke-width:1.71;stroke-linecap:round;stroke-miterlimit:10;}
	.st33{fill:#FFFFFF;stroke:#000000;stroke-width:1.71;stroke-miterlimit:10;}
	.st34{fill:none;stroke:#000000;stroke-width:1.6601;stroke-miterlimit:10;}
	.st35{fill:none;stroke:#000000;stroke-width:1.4375;stroke-miterlimit:10;}
	.st36{fill:none;stroke:#000000;stroke-width:1.71;stroke-linejoin:round;stroke-miterlimit:10;}
	.st37{fill:none;stroke:#000000;stroke-width:1.71;stroke-linecap:round;stroke-linejoin:round;stroke-miterlimit:10;}
	.st38{fill:none;stroke:#000000;stroke-width:1.8481;stroke-miterlimit:10;}
	.st39{fill:none;stroke:#000000;stroke-width:1.6821;stroke-miterlimit:10;}
	.st40{fill:none;stroke:#000000;stroke-width:1.7934;stroke-miterlimit:10;}
	.st41{fill:none;stroke:#000000;stroke-width:1.4761;stroke-miterlimit:10;}
	.st42{fill:none;stroke:#000000;stroke-width:2;stroke-linecap:round;stroke-linejoin:round;stroke-miterlimit:10;}
	.st43{fill:none;stroke:#000000;stroke-width:2;stroke-linejoin:round;stroke-miterlimit:10;}
	.st44{clip-path:url(#SVGID_9_);stroke:#000000;stroke-width:2;stroke-miterlimit:10;}
	.st45{clip-path:url(#SVGID_9_);fill:none;stroke:#000000;stroke-width:2;stroke-miterlimit:10;}
	.st46{clip-path:url(#SVGID_11_);stroke:#000000;stroke-width:2;stroke-miterlimit:10;}
	.st47{clip-path:url(#SVGID_11_);fill:none;stroke:#000000;stroke-width:2;stroke-miterlimit:10;}
	.st48{clip-path:url(#SVGID_13_);stroke:#000000;stroke-width:2;stroke-miterlimit:10;}
	.st49{clip-path:url(#SVGID_13_);fill:none;stroke:#000000;stroke-width:2;stroke-miterlimit:10;}
	.st50{fill:none;stroke:#FFFFFF;stroke-width:8.8532;stroke-miterlimit:10;}
	.st51{stroke:#000000;stroke-width:5.2;stroke-miterlimit:10;}
	.st52{fill:#FFFFFF;stroke:#000000;stroke-width:2;stroke-miterlimit:10;}
	.st53{fill:none;stroke:#FFFFFF;stroke-width:1.6821;stroke-miterlimit:10;}
	.st54{fill:none;stroke:#000000;stroke-width:10.5085;stroke-miterlimit:10;}
</style>
<linearGradient id="SVGID_1_" gradientUnits="userSpaceOnUse" x1="3483.7981" y1="-4416.8633" x2="3483.7981" y2="-4417.8633">
	<stop  offset="0" style="stop-color:#656565"/>
	<stop  offset="0.618" style="stop-color:#1B1B1B"/>
	<stop  offset="0.6292" style="stop-color:#545454"/>
	<stop  offset="0.9831" style="stop-color:#3E3E3E"/>
</linearGradient>
<g>
	<line class="st28" x1="24.3" y1="47.7" x2="45" y2="47.7"/>
	<g>
		<g>
			<g>
				<line class="st28" x1="34.3" y1="25.5" x2="34.3" y2="48.1"/>
			</g>
			<g>
				<path class="st28" d="M38.8,32.8c-2,0.6-3.7-0.7-3.7-0.7s0.7-2.1,2.7-2.7c2-0.6,4.5,0.4,4.5,0.4S40.7,32.2,38.8,32.8z"/>
				<path class="st28" d="M30.2,32.8c2,0.6,3.7-0.7,3.7-0.7s-0.7-2.1-2.7-2.7c-2-0.6-4.5,0.4-4.5,0.4S28.3,32.2,30.2,32.8z"/>
			</g>
			<g>
				<path class="st28" d="M30.1,42.3c0.8,1.9,2.9,2.4,2.9,2.4s1.2-1.9,0.4-3.8c-0.8-1.9-3.2-3.2-3.2-3.2S29.4,40.4,30.1,42.3z"/>
			</g>
			<g>
				<path class="st28" d="M38.6,42.6c-0.9,1.8-3.1,2.2-3.1,2.2s-1-2,0-3.8c0.9-1.8,3.5-2.9,3.5-2.9S39.5,40.8,38.6,42.6z"/>
			</g>
		</g>
		<g>
			<path class="st28" d="M35.6,25.5h-2.1c-4.2,0-7.6-3.4-7.6-7.6V8.6h0.8c4.9,0,8.8,4,8.8,8.8V25.5z"/>
			<path class="st28" d="M35.2,25.5c4.2,0,7.6-3.4,7.6-7.6V8.6h-0.8c-3.1,0-5.9,1.6-7.4,4.1"/>
			<path class="st28" d="M38,9.7c-0.8-3.3-3.5-5.8-3.5-5.8s-2.9,2.5-3.7,5.9"/>
		</g>
	</g>
	<g>
		<path class="st28" d="M21.5,27.9c1.2,1.8,1.1,4.2-0.5,5.9c-1.3,1.4-3.3,1.8-5,1.2"/>
		<path class="st28" d="M10.9,17.8c1.9,1.8,3.2,5.9,1.4,7.8c-1.8,1.9-5.9,0.9-7.8-0.9c-1.9-1.8-2-4.8-0.2-6.7S9,16,10.9,17.8z"/>
		<g>
			<path class="st28" d="M7,32.7c-2.2,0.3-4.3-1-5.1-3.1C1.1,27.5,2,25.1,3.9,24"/>
			<path class="st28" d="M20.7,28c-2.5,0.9-6.7,0.1-7.5-2.3s2-5.7,4.4-6.6c2.5-0.9,5.1,0.4,6,2.9C24.5,24.4,23.2,27.1,20.7,28z"/>
		</g>
		<path class="st28" d="M7.1,32.1c0.3-2.6,2.9-6,5.4-5.7c2.3,0.3,4.2,4.6,3.9,6.9c-0.3,2.6-2.7,4.4-5.3,4.1
			C8.7,37,6.8,34.7,7.1,32.1z"/>
		<path class="st28" d="M9.3,17c0.9-1.7,2.7-2.8,4.8-2.5c2.3,0.3,4.1,2.3,4.1,4.5"/>
		<circle class="st33" cx="12.6" cy="25.8" r="3.1"/>
		<line class="st28" x1="10.3" y1="23.7" x2="6.5" y2="20.2"/>
		<line class="st28" x1="15.7" y1="24.6" x2="20.6" y2="23"/>
		<line class="st28" x1="12.4" y1="29" x2="11.4" y2="34.1"/>
	</g>
	<g>
		<g>
			<line class="st28" x1="20.9" y1="33.8" x2="34.2" y2="47.2"/>
		</g>
		<g>
			<path class="st28" d="M23,42.3c2.1-0.2,3.2-2.1,3.2-2.1s-1.4-1.7-3.5-1.5s-4,2.1-4,2.1S20.9,42.5,23,42.3z"/>
		</g>
	</g>
	<g>
		<g>
			<line class="st28" x1="48.3" y1="33.8" x2="34.9" y2="47.2"/>
		</g>
		<g>
			<path class="st28" d="M46.2,42.3c-2.1-0.2-3.2-2.1-3.2-2.1s1.4-1.7,3.5-1.5s4,2.1,4,2.1S48.3,42.5,46.2,42.3z"/>
		</g>
	</g>
	<g>
		<g>
			<path class="st28" d="M53.8,23.5v-6.7c0-1.2,1-2.2,2.2-2.2h0c1.2,0,2.2,1,2.2,2.2v6.7"/>
			<path class="st28" d="M58.3,28.5v6.7c0,1.2-1,2.2-2.2,2.2h0c-1.2,0-2.2-1-2.2-2.2v-6.7"/>
		</g>
		<g>
			<path class="st28" d="M58.5,23.8h6.7c1.2,0,2.2,1,2.2,2.2v0c0,1.2-1,2.2-2.2,2.2h-6.7"/>
			<path class="st28" d="M53.6,28.2h-6.7c-1.2,0-2.2-1-2.2-2.2v0c0-1.2,1-2.2,2.2-2.2h6.7"/>
		</g>
		<g>
			<path class="st28" d="M59.4,26.2l4.7,4.7c0.9,0.9,0.9,2.3,0,3.1l0,0c-0.9,0.9-2.3,0.9-3.1,0l-4.7-4.7"/>
			<path class="st28" d="M52.7,25.8L48,21.1c-0.9-0.9-0.9-2.3,0-3.1v0c0.9-0.9,2.3-0.9,3.1,0l4.7,4.7"/>
		</g>
		<g>
			<path class="st28" d="M56.2,22.7l4.7-4.7c0.9-0.9,2.3-0.9,3.1,0l0,0c0.9,0.9,0.9,2.3,0,3.1l-4.7,4.7"/>
			<path class="st28" d="M55.8,29.3L51.1,34c-0.9,0.9-2.3,0.9-3.1,0v0c-0.9-0.9-0.9-2.3,0-3.1l4.7-4.7"/>
		</g>
		<circle class="st29" cx="56" cy="25.7" r="3.5"/>
	</g>
	<g>
		<path class="st29" d="M41.4,47.3c1-1.3,1.4-3.1,1.4-3.1s-2.7-0.1-4.3,1.1c-0.7,0.6-1.1,1.3-1.3,2H41.4z"/>
	</g>
	<g>
		<path class="st29" d="M32.3,47.3c-0.2-0.7-0.6-1.4-1.3-2c-1.6-1.3-4.3-1.1-4.3-1.1s0.4,1.8,1.4,3.1H32.3z"/>
	</g>
</g>
</svg>
