<?xml version="1.0" encoding="utf-8"?>
<!-- Generator: Adobe Illustrator 25.2.3, SVG Export Plug-In . SVG Version: 6.00 Build 0)  -->
<svg version="1.1" id="Layer_1" xmlns="http://www.w3.org/2000/svg" xmlns:xlink="http://www.w3.org/1999/xlink" x="0px" y="0px"
	 viewBox="0 0 66 52" style="enable-background:new 0 0 66 52;" xml:space="preserve">
<style type="text/css">
	.Drop_x0020_Shadow{fill:none;}
	.Outer_x0020_Glow_x0020_5_x0020_pt{fill:none;}
	.Blue_x0020_Neon{fill:none;stroke:#8AACDA;stroke-width:7;stroke-linecap:round;stroke-linejoin:round;}
	.Chrome_x0020_Highlight{fill:url(#SVGID_1_);stroke:#FFFFFF;stroke-width:0.3629;stroke-miterlimit:1;}
	.Jive_GS{fill:#FFDD00;}
	.Alyssa_GS{fill:#A6D0E4;}
	.st0{fill:none;stroke:#000000;stroke-width:9;stroke-miterlimit:10;}
	.st1{fill:none;stroke:#000000;stroke-width:9;stroke-linecap:round;stroke-miterlimit:10;}
	.st2{stroke:#000000;stroke-width:9;stroke-miterlimit:10;}
	.st3{stroke:#000000;stroke-width:8;stroke-miterlimit:10;}
	.st4{fill:none;stroke:#000000;stroke-width:8.8532;stroke-miterlimit:10;}
	.st5{fill:#FFFFFF;}
	.st6{fill:none;stroke:#000000;stroke-width:8.861;stroke-miterlimit:10;}
	.st7{fill:none;stroke:#000000;stroke-width:14.1154;stroke-miterlimit:10;}
	.st8{fill:#FFFFFF;stroke:#000000;stroke-width:9;stroke-miterlimit:10;}
	.st9{fill:none;stroke:#000000;stroke-width:8.7373;stroke-miterlimit:10;}
	.st10{fill:none;stroke:#000000;stroke-width:7.5658;stroke-miterlimit:10;}
	.st11{fill:none;stroke:#000000;stroke-width:9;stroke-linejoin:round;stroke-miterlimit:10;}
	.st12{fill:none;stroke:#000000;stroke-width:9;stroke-linecap:round;stroke-linejoin:round;stroke-miterlimit:10;}
	.st13{fill:none;stroke:#000000;stroke-width:9.7267;stroke-miterlimit:10;}
	.st14{fill:none;stroke:#000000;stroke-width:9.4391;stroke-miterlimit:10;}
	.st15{fill:none;stroke:#000000;stroke-width:7.7688;stroke-miterlimit:10;}
	.st16{stroke:#000000;stroke-width:9.1543;stroke-miterlimit:10;}
	.st17{clip-path:url(#SVGID_3_);stroke:#000000;stroke-width:12.5244;stroke-miterlimit:10;}
	.st18{clip-path:url(#SVGID_3_);fill:none;stroke:#000000;stroke-width:12.5244;stroke-miterlimit:10;}
	.st19{clip-path:url(#SVGID_5_);stroke:#000000;stroke-width:12.5244;stroke-miterlimit:10;}
	.st20{clip-path:url(#SVGID_5_);fill:none;stroke:#000000;stroke-width:12.5244;stroke-miterlimit:10;}
	.st21{stroke:#000000;stroke-width:9.1781;stroke-miterlimit:10;}
	.st22{fill:none;stroke:#000000;stroke-width:9.1781;stroke-miterlimit:10;}
	.st23{clip-path:url(#SVGID_7_);stroke:#000000;stroke-width:12.5244;stroke-miterlimit:10;}
	.st24{clip-path:url(#SVGID_7_);fill:none;stroke:#000000;stroke-width:12.5244;stroke-miterlimit:10;}
	.st25{fill:none;stroke:#000000;stroke-width:2;stroke-miterlimit:10;}
	.st26{fill:none;stroke:#000000;stroke-width:2;stroke-linecap:round;stroke-miterlimit:10;}
	.st27{stroke:#000000;stroke-width:2;stroke-miterlimit:10;}
	.st28{fill:none;stroke:#000000;stroke-width:1.71;stroke-miterlimit:10;}
	.st29{stroke:#000000;stroke-width:1.71;stroke-miterlimit:10;}
	.st30{fill:none;stroke:#000000;stroke-width:1.6836;stroke-miterlimit:10;}
	.st31{fill:none;stroke:#000000;stroke-width:2.6819;stroke-miterlimit:10;}
	.st32{fill:none;stroke:#000000;stroke-width:1.71;stroke-linecap:round;stroke-miterlimit:10;}
	.st33{fill:#FFFFFF;stroke:#000000;stroke-width:1.71;stroke-miterlimit:10;}
	.st34{fill:none;stroke:#000000;stroke-width:1.6601;stroke-miterlimit:10;}
	.st35{fill:none;stroke:#000000;stroke-width:1.4375;stroke-miterlimit:10;}
	.st36{fill:none;stroke:#000000;stroke-width:1.71;stroke-linejoin:round;stroke-miterlimit:10;}
	.st37{fill:none;stroke:#000000;stroke-width:1.71;stroke-linecap:round;stroke-linejoin:round;stroke-miterlimit:10;}
	.st38{fill:none;stroke:#000000;stroke-width:1.8481;stroke-miterlimit:10;}
	.st39{fill:none;stroke:#000000;stroke-width:1.6821;stroke-miterlimit:10;}
	.st40{fill:none;stroke:#000000;stroke-width:1.7934;stroke-miterlimit:10;}
	.st41{fill:none;stroke:#000000;stroke-width:1.4761;stroke-miterlimit:10;}
	.st42{fill:none;stroke:#000000;stroke-width:2;stroke-linecap:round;stroke-linejoin:round;stroke-miterlimit:10;}
	.st43{fill:none;stroke:#000000;stroke-width:2;stroke-linejoin:round;stroke-miterlimit:10;}
	.st44{clip-path:url(#SVGID_9_);stroke:#000000;stroke-width:2;stroke-miterlimit:10;}
	.st45{clip-path:url(#SVGID_9_);fill:none;stroke:#000000;stroke-width:2;stroke-miterlimit:10;}
	.st46{clip-path:url(#SVGID_11_);stroke:#000000;stroke-width:2;stroke-miterlimit:10;}
	.st47{clip-path:url(#SVGID_11_);fill:none;stroke:#000000;stroke-width:2;stroke-miterlimit:10;}
	.st48{clip-path:url(#SVGID_13_);stroke:#000000;stroke-width:2;stroke-miterlimit:10;}
	.st49{clip-path:url(#SVGID_13_);fill:none;stroke:#000000;stroke-width:2;stroke-miterlimit:10;}
	.st50{fill:none;stroke:#FFFFFF;stroke-width:8.8532;stroke-miterlimit:10;}
	.st51{stroke:#000000;stroke-width:5.2;stroke-miterlimit:10;}
	.st52{fill:#FFFFFF;stroke:#000000;stroke-width:2;stroke-miterlimit:10;}
	.st53{fill:none;stroke:#FFFFFF;stroke-width:1.6821;stroke-miterlimit:10;}
	.st54{fill:none;stroke:#000000;stroke-width:10.5085;stroke-miterlimit:10;}
</style>
<linearGradient id="SVGID_1_" gradientUnits="userSpaceOnUse" x1="2588.0352" y1="-4416.8633" x2="2588.0352" y2="-4417.8633">
	<stop  offset="0" style="stop-color:#656565"/>
	<stop  offset="0.618" style="stop-color:#1B1B1B"/>
	<stop  offset="0.6292" style="stop-color:#545454"/>
	<stop  offset="0.9831" style="stop-color:#3E3E3E"/>
</linearGradient>
<g>
	<g>
		<line class="st28" x1="5.7" y1="48.6" x2="63.1" y2="48.6"/>
		<polyline class="st28" points="11.4,48.6 11.4,4.6 8.3,4.6 8.3,48.6 		"/>
		<polyline class="st28" points="44.2,20.2 44.2,4.6 40.9,4.6 40.9,20.2 		"/>
		<line class="st28" x1="11.9" y1="7" x2="41.7" y2="7"/>
		<g>
			<path class="st28" d="M16.7,48.4v-4.8c0-1.5,1.2-2.6,2.6-2.6h3c1.1,0,2.2-0.5,2.8-1.4l13.4-17.9c0.7-0.9,1.7-1.4,2.8-1.4h7.5v2.5
				c0,1.4,1.1,2.5,2.5,2.5H57v2.9h-7.5c-1.6,0-3.1,0.8-4.1,2.1L32.2,48.4"/>
			<path class="st28" d="M22.4,48.4v-4.8c0-1.5,1.2-2.6,2.6-2.6h1.8c1.1,0,2.2-0.5,2.8-1.4l13.4-17.9c0.7-0.9,1.7-1.4,2.8-1.4h9.2
				c1,0,1.9,0.8,1.9,1.9v2.6"/>
			<path class="st28" d="M47.7,20.2h1.9c1,0,1.9,0.8,1.9,1.9v2.6"/>
			<line class="st28" x1="57" y1="28.1" x2="60.8" y2="48.4"/>
			<line class="st28" x1="51.5" y1="28.1" x2="55.3" y2="48.4"/>
			<g>
				<line class="st28" x1="52.4" y1="31.8" x2="57.4" y2="31.8"/>
				<line class="st28" x1="53.1" y1="36.2" x2="58.3" y2="36.2"/>
				<line class="st28" x1="54.2" y1="40.6" x2="59.1" y2="40.6"/>
				<line class="st28" x1="55" y1="45" x2="60" y2="45"/>
				<line class="st28" x1="16.8" y1="45" x2="22.6" y2="45"/>
			</g>
			<line class="st28" x1="49.1" y1="28.7" x2="49.1" y2="48.4"/>
			<line class="st28" x1="43.9" y1="32.2" x2="43.9" y2="48.4"/>
		</g>
		<path class="st28" d="M28.4,34.5h-8.6c-0.9,0-1.5-0.7-1.5-1.5v0c0-0.9,0.7-1.5,1.5-1.5h11"/>
		<line class="st28" x1="20.8" y1="31.4" x2="20.8" y2="7"/>
		<line class="st28" x1="31.6" y1="31" x2="31.6" y2="7"/>
	</g>
	<path d="M42.2,19.6c-3.8,1.2-5.6,5.1-7.5,8.2c-0.2,0.3-0.4,0.6-0.5,0.8c-0.8,0.7-1.5,1.3-2.3,2c-0.4,0.4-0.4,0.9-0.1,1.2
		c-0.8,0.7-1.5,1.4-2.3,2.2c-1.6,1.5-2.8,3.3-4.1,5c-0.5,0.7,0.2,1.4,0.9,1.4c0.2,0.5,0.9,0.8,1.5,0.3c4.6-4.5,8.5-9.7,12.3-14.9
		c0.3-0.5,0.1-0.9-0.2-1.2c1-1.2,2.1-2.4,3.3-3.6C43.8,20.5,43.1,19.3,42.2,19.6z"/>
	<path d="M22.3,41c-0.9-0.8-2.5-0.6-3.5-0.2c-1.3,0.5-2.2,1.5-2.7,2.8c-0.2,0.5,0.2,1,0.7,1.2c0.4,0.1,0.8,0.2,1.3,0.3
		c0.7,0.2,1.6,0.7,1.7,0.1c1,0.4,1.6-0.6,2.4-1.4C22.9,43.1,23.1,41.8,22.3,41z"/>
</g>
</svg>
