<?xml version="1.0" encoding="utf-8"?>
<!-- Generator: Adobe Illustrator 25.2.3, SVG Export Plug-In . SVG Version: 6.00 Build 0)  -->
<svg version="1.1" id="Layer_1" xmlns="http://www.w3.org/2000/svg" xmlns:xlink="http://www.w3.org/1999/xlink" x="0px" y="0px"
	 viewBox="0 0 66 52" style="enable-background:new 0 0 66 52;" xml:space="preserve">
<style type="text/css">
	.Drop_x0020_Shadow{fill:none;}
	.Outer_x0020_Glow_x0020_5_x0020_pt{fill:none;}
	.Blue_x0020_Neon{fill:none;stroke:#8AACDA;stroke-width:7;stroke-linecap:round;stroke-linejoin:round;}
	.Chrome_x0020_Highlight{fill:url(#SVGID_1_);stroke:#FFFFFF;stroke-width:0.3629;stroke-miterlimit:1;}
	.Jive_GS{fill:#FFDD00;}
	.Alyssa_GS{fill:#A6D0E4;}
	.st0{fill:none;stroke:#000000;stroke-width:9;stroke-miterlimit:10;}
	.st1{fill:none;stroke:#000000;stroke-width:9;stroke-linecap:round;stroke-miterlimit:10;}
	.st2{stroke:#000000;stroke-width:9;stroke-miterlimit:10;}
	.st3{stroke:#000000;stroke-width:8;stroke-miterlimit:10;}
	.st4{fill:none;stroke:#000000;stroke-width:8.8532;stroke-miterlimit:10;}
	.st5{fill:#FFFFFF;}
	.st6{fill:none;stroke:#000000;stroke-width:8.861;stroke-miterlimit:10;}
	.st7{fill:none;stroke:#000000;stroke-width:14.1154;stroke-miterlimit:10;}
	.st8{fill:#FFFFFF;stroke:#000000;stroke-width:9;stroke-miterlimit:10;}
	.st9{fill:none;stroke:#000000;stroke-width:8.7373;stroke-miterlimit:10;}
	.st10{fill:none;stroke:#000000;stroke-width:7.5658;stroke-miterlimit:10;}
	.st11{fill:none;stroke:#000000;stroke-width:9;stroke-linejoin:round;stroke-miterlimit:10;}
	.st12{fill:none;stroke:#000000;stroke-width:9;stroke-linecap:round;stroke-linejoin:round;stroke-miterlimit:10;}
	.st13{fill:none;stroke:#000000;stroke-width:9.7267;stroke-miterlimit:10;}
	.st14{fill:none;stroke:#000000;stroke-width:9.4391;stroke-miterlimit:10;}
	.st15{fill:none;stroke:#000000;stroke-width:7.7688;stroke-miterlimit:10;}
	.st16{stroke:#000000;stroke-width:9.1543;stroke-miterlimit:10;}
	.st17{clip-path:url(#SVGID_3_);stroke:#000000;stroke-width:12.5244;stroke-miterlimit:10;}
	.st18{clip-path:url(#SVGID_3_);fill:none;stroke:#000000;stroke-width:12.5244;stroke-miterlimit:10;}
	.st19{clip-path:url(#SVGID_5_);stroke:#000000;stroke-width:12.5244;stroke-miterlimit:10;}
	.st20{clip-path:url(#SVGID_5_);fill:none;stroke:#000000;stroke-width:12.5244;stroke-miterlimit:10;}
	.st21{stroke:#000000;stroke-width:9.1781;stroke-miterlimit:10;}
	.st22{fill:none;stroke:#000000;stroke-width:9.1781;stroke-miterlimit:10;}
	.st23{clip-path:url(#SVGID_7_);stroke:#000000;stroke-width:12.5244;stroke-miterlimit:10;}
	.st24{clip-path:url(#SVGID_7_);fill:none;stroke:#000000;stroke-width:12.5244;stroke-miterlimit:10;}
	.st25{fill:none;stroke:#000000;stroke-width:2;stroke-miterlimit:10;}
	.st26{fill:none;stroke:#000000;stroke-width:2;stroke-linecap:round;stroke-miterlimit:10;}
	.st27{stroke:#000000;stroke-width:2;stroke-miterlimit:10;}
	.st28{fill:none;stroke:#000000;stroke-width:1.71;stroke-miterlimit:10;}
	.st29{stroke:#000000;stroke-width:1.71;stroke-miterlimit:10;}
	.st30{fill:none;stroke:#000000;stroke-width:1.6836;stroke-miterlimit:10;}
	.st31{fill:none;stroke:#000000;stroke-width:2.6819;stroke-miterlimit:10;}
	.st32{fill:none;stroke:#000000;stroke-width:1.71;stroke-linecap:round;stroke-miterlimit:10;}
	.st33{fill:#FFFFFF;stroke:#000000;stroke-width:1.71;stroke-miterlimit:10;}
	.st34{fill:none;stroke:#000000;stroke-width:1.6601;stroke-miterlimit:10;}
	.st35{fill:none;stroke:#000000;stroke-width:1.4375;stroke-miterlimit:10;}
	.st36{fill:none;stroke:#000000;stroke-width:1.71;stroke-linejoin:round;stroke-miterlimit:10;}
	.st37{fill:none;stroke:#000000;stroke-width:1.71;stroke-linecap:round;stroke-linejoin:round;stroke-miterlimit:10;}
	.st38{fill:none;stroke:#000000;stroke-width:1.8481;stroke-miterlimit:10;}
	.st39{fill:none;stroke:#000000;stroke-width:1.6821;stroke-miterlimit:10;}
	.st40{fill:none;stroke:#000000;stroke-width:1.7934;stroke-miterlimit:10;}
	.st41{fill:none;stroke:#000000;stroke-width:1.4761;stroke-miterlimit:10;}
	.st42{fill:none;stroke:#000000;stroke-width:2;stroke-linecap:round;stroke-linejoin:round;stroke-miterlimit:10;}
	.st43{fill:none;stroke:#000000;stroke-width:2;stroke-linejoin:round;stroke-miterlimit:10;}
	.st44{clip-path:url(#SVGID_9_);stroke:#000000;stroke-width:2;stroke-miterlimit:10;}
	.st45{clip-path:url(#SVGID_9_);fill:none;stroke:#000000;stroke-width:2;stroke-miterlimit:10;}
	.st46{clip-path:url(#SVGID_11_);stroke:#000000;stroke-width:2;stroke-miterlimit:10;}
	.st47{clip-path:url(#SVGID_11_);fill:none;stroke:#000000;stroke-width:2;stroke-miterlimit:10;}
	.st48{clip-path:url(#SVGID_13_);stroke:#000000;stroke-width:2;stroke-miterlimit:10;}
	.st49{clip-path:url(#SVGID_13_);fill:none;stroke:#000000;stroke-width:2;stroke-miterlimit:10;}
	.st50{fill:none;stroke:#FFFFFF;stroke-width:8.8532;stroke-miterlimit:10;}
	.st51{stroke:#000000;stroke-width:5.2;stroke-miterlimit:10;}
	.st52{fill:#FFFFFF;stroke:#000000;stroke-width:2;stroke-miterlimit:10;}
	.st53{fill:none;stroke:#FFFFFF;stroke-width:1.6821;stroke-miterlimit:10;}
	.st54{fill:none;stroke:#000000;stroke-width:10.5085;stroke-miterlimit:10;}
</style>
<linearGradient id="SVGID_1_" gradientUnits="userSpaceOnUse" x1="4010.3853" y1="-4416.8633" x2="4010.3853" y2="-4417.8633">
	<stop  offset="0" style="stop-color:#656565"/>
	<stop  offset="0.618" style="stop-color:#1B1B1B"/>
	<stop  offset="0.6292" style="stop-color:#545454"/>
	<stop  offset="0.9831" style="stop-color:#3E3E3E"/>
</linearGradient>
<g>
	<g>
		<circle cx="32.4" cy="5.3" r="0.9"/>
		<circle cx="52.5" cy="5.7" r="0.7"/>
		<g>
			<g>
				<line class="st28" x1="4.1" y1="47.1" x2="61.9" y2="47.1"/>
				<polyline class="st28" points="58.8,46.5 58.8,21 7,21 7,46.5 				"/>
				<line class="st28" x1="29.4" y1="41.9" x2="7" y2="41.9"/>
				<path class="st28" d="M58.8,21v-1.7c0-1.4-1.1-2.5-2.5-2.5H9.4c-1.4,0-2.5,1.1-2.5,2.5V21"/>
				<path class="st28" d="M50.8,46.7V19.3c0-1.4-1.1-2.5-2.5-2.5"/>
				<line class="st28" x1="59" y1="41.9" x2="35.7" y2="41.9"/>
			</g>
			<path class="st28" d="M13.7,11.9L13.7,11.9c-1,0-1.7-0.8-1.7-1.8l0.1-4.8h3.1l0.1,4.8C15.4,11.1,14.6,11.9,13.7,11.9z"/>
			<path class="st28" d="M20.3,11.9L20.3,11.9c-1,0-1.7-0.8-1.7-1.8l0.1-4.8h3.1l0.1,4.8C22,11.1,21.2,11.9,20.3,11.9z"/>
			<line class="st28" x1="13.7" y1="11.9" x2="13.7" y2="16.2"/>
			<line class="st28" x1="20.3" y1="11.9" x2="20.3" y2="16.2"/>
			<path class="st29" d="M29.9,16.2v-5.9c0-0.8-0.3-1.6-0.9-2.2l0,0c-0.6-0.6-0.9-1.4-0.9-2.2V3h-1v3c0,0.8-0.3,1.6-0.9,2.2v0
				c-0.6,0.6-0.9,1.4-0.9,2.2v5.8H29.9z"/>
			<circle class="st28" cx="35.1" cy="12.5" r="0.6"/>
			<circle class="st28" cx="54" cy="13.2" r="0.6"/>
			<circle class="st28" cx="46.2" cy="16.2" r="0.6"/>
			<circle cx="48.4" cy="10.7" r="0.9"/>
			<circle class="st31" cx="41.6" cy="9" r="0.9"/>
			<path class="st28" d="M15.5,46.9c0,0,6.8-25.9,6.8-25.9"/>
			<path class="st28" d="M28.1,46.9c0,0,6.8-25.9,6.8-25.9"/>
			<line class="st28" x1="35.7" y1="21.6" x2="35.7" y2="46.9"/>
			<line class="st28" x1="18.5" y1="34.8" x2="31.2" y2="34.8"/>
			<line class="st28" x1="20.3" y1="28" x2="32.9" y2="28"/>
		</g>
	</g>
</g>
</svg>
