<?xml version="1.0" encoding="utf-8"?>
<!-- Generator: Adobe Illustrator 25.2.3, SVG Export Plug-In . SVG Version: 6.00 Build 0)  -->
<svg version="1.1" id="Layer_1" xmlns="http://www.w3.org/2000/svg" xmlns:xlink="http://www.w3.org/1999/xlink" x="0px" y="0px"
	 viewBox="0 0 66 52" style="enable-background:new 0 0 66 52;" xml:space="preserve">
<style type="text/css">
	.Drop_x0020_Shadow{fill:none;}
	.Outer_x0020_Glow_x0020_5_x0020_pt{fill:none;}
	.Blue_x0020_Neon{fill:none;stroke:#8AACDA;stroke-width:7;stroke-linecap:round;stroke-linejoin:round;}
	.Chrome_x0020_Highlight{fill:url(#SVGID_1_);stroke:#FFFFFF;stroke-width:0.3629;stroke-miterlimit:1;}
	.Jive_GS{fill:#FFDD00;}
	.Alyssa_GS{fill:#A6D0E4;}
	.st0{fill:none;stroke:#000000;stroke-width:9;stroke-miterlimit:10;}
	.st1{fill:none;stroke:#000000;stroke-width:9;stroke-linecap:round;stroke-miterlimit:10;}
	.st2{stroke:#000000;stroke-width:9;stroke-miterlimit:10;}
	.st3{stroke:#000000;stroke-width:8;stroke-miterlimit:10;}
	.st4{fill:none;stroke:#000000;stroke-width:8.8532;stroke-miterlimit:10;}
	.st5{fill:#FFFFFF;}
	.st6{fill:none;stroke:#000000;stroke-width:8.861;stroke-miterlimit:10;}
	.st7{fill:none;stroke:#000000;stroke-width:14.1154;stroke-miterlimit:10;}
	.st8{fill:#FFFFFF;stroke:#000000;stroke-width:9;stroke-miterlimit:10;}
	.st9{fill:none;stroke:#000000;stroke-width:8.7373;stroke-miterlimit:10;}
	.st10{fill:none;stroke:#000000;stroke-width:7.5658;stroke-miterlimit:10;}
	.st11{fill:none;stroke:#000000;stroke-width:9;stroke-linejoin:round;stroke-miterlimit:10;}
	.st12{fill:none;stroke:#000000;stroke-width:9;stroke-linecap:round;stroke-linejoin:round;stroke-miterlimit:10;}
	.st13{fill:none;stroke:#000000;stroke-width:9.7267;stroke-miterlimit:10;}
	.st14{fill:none;stroke:#000000;stroke-width:9.4391;stroke-miterlimit:10;}
	.st15{fill:none;stroke:#000000;stroke-width:7.7688;stroke-miterlimit:10;}
	.st16{stroke:#000000;stroke-width:9.1543;stroke-miterlimit:10;}
	.st17{clip-path:url(#SVGID_3_);stroke:#000000;stroke-width:12.5244;stroke-miterlimit:10;}
	.st18{clip-path:url(#SVGID_3_);fill:none;stroke:#000000;stroke-width:12.5244;stroke-miterlimit:10;}
	.st19{clip-path:url(#SVGID_5_);stroke:#000000;stroke-width:12.5244;stroke-miterlimit:10;}
	.st20{clip-path:url(#SVGID_5_);fill:none;stroke:#000000;stroke-width:12.5244;stroke-miterlimit:10;}
	.st21{stroke:#000000;stroke-width:9.1781;stroke-miterlimit:10;}
	.st22{fill:none;stroke:#000000;stroke-width:9.1781;stroke-miterlimit:10;}
	.st23{clip-path:url(#SVGID_7_);stroke:#000000;stroke-width:12.5244;stroke-miterlimit:10;}
	.st24{clip-path:url(#SVGID_7_);fill:none;stroke:#000000;stroke-width:12.5244;stroke-miterlimit:10;}
	.st25{fill:none;stroke:#000000;stroke-width:2;stroke-miterlimit:10;}
	.st26{fill:none;stroke:#000000;stroke-width:2;stroke-linecap:round;stroke-miterlimit:10;}
	.st27{stroke:#000000;stroke-width:2;stroke-miterlimit:10;}
	.st28{fill:none;stroke:#000000;stroke-width:1.71;stroke-miterlimit:10;}
	.st29{stroke:#000000;stroke-width:1.71;stroke-miterlimit:10;}
	.st30{fill:none;stroke:#000000;stroke-width:1.6836;stroke-miterlimit:10;}
	.st31{fill:none;stroke:#000000;stroke-width:2.6819;stroke-miterlimit:10;}
	.st32{fill:none;stroke:#000000;stroke-width:1.71;stroke-linecap:round;stroke-miterlimit:10;}
	.st33{fill:#FFFFFF;stroke:#000000;stroke-width:1.71;stroke-miterlimit:10;}
	.st34{fill:none;stroke:#000000;stroke-width:1.6601;stroke-miterlimit:10;}
	.st35{fill:none;stroke:#000000;stroke-width:1.4375;stroke-miterlimit:10;}
	.st36{fill:none;stroke:#000000;stroke-width:1.71;stroke-linejoin:round;stroke-miterlimit:10;}
	.st37{fill:none;stroke:#000000;stroke-width:1.71;stroke-linecap:round;stroke-linejoin:round;stroke-miterlimit:10;}
	.st38{fill:none;stroke:#000000;stroke-width:1.8481;stroke-miterlimit:10;}
	.st39{fill:none;stroke:#000000;stroke-width:1.6821;stroke-miterlimit:10;}
	.st40{fill:none;stroke:#000000;stroke-width:1.7934;stroke-miterlimit:10;}
	.st41{fill:none;stroke:#000000;stroke-width:1.4761;stroke-miterlimit:10;}
	.st42{fill:none;stroke:#000000;stroke-width:2;stroke-linecap:round;stroke-linejoin:round;stroke-miterlimit:10;}
	.st43{fill:none;stroke:#000000;stroke-width:2;stroke-linejoin:round;stroke-miterlimit:10;}
	.st44{clip-path:url(#SVGID_9_);stroke:#000000;stroke-width:2;stroke-miterlimit:10;}
	.st45{clip-path:url(#SVGID_9_);fill:none;stroke:#000000;stroke-width:2;stroke-miterlimit:10;}
	.st46{clip-path:url(#SVGID_11_);stroke:#000000;stroke-width:2;stroke-miterlimit:10;}
	.st47{clip-path:url(#SVGID_11_);fill:none;stroke:#000000;stroke-width:2;stroke-miterlimit:10;}
	.st48{clip-path:url(#SVGID_13_);stroke:#000000;stroke-width:2;stroke-miterlimit:10;}
	.st49{clip-path:url(#SVGID_13_);fill:none;stroke:#000000;stroke-width:2;stroke-miterlimit:10;}
	.st50{fill:none;stroke:#FFFFFF;stroke-width:8.8532;stroke-miterlimit:10;}
	.st51{stroke:#000000;stroke-width:5.2;stroke-miterlimit:10;}
	.st52{fill:#FFFFFF;stroke:#000000;stroke-width:2;stroke-miterlimit:10;}
	.st53{fill:none;stroke:#FFFFFF;stroke-width:1.6821;stroke-miterlimit:10;}
	.st54{fill:none;stroke:#000000;stroke-width:10.5085;stroke-miterlimit:10;}
</style>
<linearGradient id="SVGID_1_" gradientUnits="userSpaceOnUse" x1="3308.0337" y1="-4567.2158" x2="3308.0337" y2="-4568.2158">
	<stop  offset="0" style="stop-color:#656565"/>
	<stop  offset="0.618" style="stop-color:#1B1B1B"/>
	<stop  offset="0.6292" style="stop-color:#545454"/>
	<stop  offset="0.9831" style="stop-color:#3E3E3E"/>
</linearGradient>
<g>
	<g>
		<line class="st28" x1="6.5" y1="50.2" x2="59.5" y2="50.2"/>
	</g>
	<g>
		<path class="st28" d="M17.1,6.3h-3.5c-3.3,0-6,2.7-6,6v30.5c0,4,3.2,7.2,7.2,7.2H53c2.6,0,4.8-2.1,4.8-4.8V16.2c0-3.3-2.7-6-6-6"
			/>
		<line class="st28" x1="33.8" y1="6.3" x2="25.9" y2="6.3"/>
		<path class="st28" d="M52.7,45.3H14.9c-1.3,0-2.4-1.1-2.4-2.4v0c0-1.3,1.1-2.4,2.4-2.4h38c2.6,0,4.8,2.1,4.8,4.8v0
			c0,2.6-2.1,4.8-4.8,4.8H14.7c-4,0-7.2-3.2-7.2-7.2v0c0-4,3.2-7.2,7.2-7.2h35c1.4,0,2.6-1.2,2.6-2.6V9c0-1.4-1.2-2.6-2.6-2.6h-6.9"
			/>
	</g>
	<line class="st28" x1="49.6" y1="10.1" x2="52.3" y2="10.1"/>
	<line class="st28" x1="49.6" y1="13.8" x2="52.3" y2="13.8"/>
	<line class="st28" x1="49.6" y1="17.4" x2="52.3" y2="17.4"/>
	<line class="st28" x1="49.6" y1="21" x2="52.3" y2="21"/>
	<line class="st28" x1="49.6" y1="24.7" x2="52.3" y2="24.7"/>
	<line class="st28" x1="49.6" y1="28.3" x2="52.3" y2="28.3"/>
	<line class="st28" x1="49.6" y1="32" x2="52.3" y2="32"/>
	<g>
		<g>
			<g>
				<g>
					<g>
						<g>
							<g>
								<path d="M20.7,11.8c0.6,0.1,1,0.3,1,0.6s-0.5,0.4-1.1,0.3c-1.4-0.2-1.9-0.7-1.9-0.7S19.4,11.6,20.7,11.8z"/>
								<path d="M21.6,11.2c0.4,0.7,0.4,1.4,0.1,1.6s-0.9-0.2-1.3-0.9c-0.9-1.6-0.6-2.6-0.6-2.6S20.8,9.6,21.6,11.2z"/>
								<path d="M22.3,11.8c-0.6,0.1-1,0.3-1,0.6s0.5,0.4,1.1,0.3c1.4-0.2,1.9-0.7,1.9-0.7S23.7,11.6,22.3,11.8z"/>
								<path d="M22,11.4c-0.6,0.4-0.9,0.9-0.7,1.2c0.2,0.3,0.8,0.2,1.4-0.2c1.4-1,1.6-1.8,1.6-1.8S23.4,10.5,22,11.4z"/>
								<path d="M21,11.4c0.6,0.4,0.9,0.9,0.7,1.2c-0.2,0.3-0.8,0.2-1.4-0.2c-1.4-1-1.6-1.8-1.6-1.8S19.7,10.5,21,11.4z"/>
								<path d="M21.5,11.2c-0.4,0.7-0.4,1.4-0.1,1.6c0.3,0.2,0.9-0.2,1.3-0.9c0.9-1.6,0.7-2.6,0.7-2.6S22.3,9.6,21.5,11.2z"/>
							</g>
							<path d="M20.7,11.3c0,0.8,0.4,1.5,0.8,1.5c0.5,0,0.8-0.7,0.8-1.5c0-2-0.8-2.8-0.8-2.8S20.7,9.3,20.7,11.3z"/>
						</g>
					</g>
				</g>
				<path d="M20.6,12.8l0.5,0c0.2,0,0.4,0,0.6,0l0.6,0l-0.2-0.3l-0.8-0.2l-0.4,0.4L20.6,12.8z"/>
			</g>
			<path class="st28" d="M22.6,31h-2c-2.8,0-5-2.2-5-5V10.5c0-3.3,2.7-6,6-6h0c3.3,0,6,2.7,6,6V26C27.6,28.8,25.3,31,22.6,31z"/>
			<path class="st35" d="M15.7,17.3c3.9-2.1,7.8-2.1,11.7,0"/>
		</g>
		<g>
			<g>
				<g>
					<g>
						<g>
							<g>
								<path d="M37.6,11.8c0.6,0.1,1,0.3,1,0.6s-0.5,0.4-1.1,0.3c-1.4-0.2-1.9-0.7-1.9-0.7S36.2,11.6,37.6,11.8z"/>
								<path d="M38.5,11.2c0.4,0.7,0.4,1.4,0.1,1.6c-0.3,0.2-0.9-0.2-1.3-0.9c-0.9-1.6-0.6-2.6-0.6-2.6S37.6,9.6,38.5,11.2z"/>
								<path d="M39.2,11.8c-0.6,0.1-1,0.3-1,0.6s0.5,0.4,1.1,0.3c1.4-0.2,1.9-0.7,1.9-0.7S40.5,11.6,39.2,11.8z"/>
								<path d="M38.9,11.4c-0.6,0.4-0.9,0.9-0.7,1.2c0.2,0.3,0.8,0.2,1.4-0.2c1.4-1,1.6-1.8,1.6-1.8S40.2,10.5,38.9,11.4z"/>
								<path d="M37.9,11.4c0.6,0.4,0.9,0.9,0.7,1.2c-0.2,0.3-0.8,0.2-1.4-0.2c-1.4-1-1.6-1.8-1.6-1.8S36.5,10.5,37.9,11.4z"/>
								<path d="M38.3,11.2c-0.4,0.7-0.4,1.4-0.1,1.6s0.9-0.2,1.3-0.9c0.9-1.6,0.7-2.6,0.7-2.6S39.2,9.6,38.3,11.2z"/>
							</g>
							<path d="M37.6,11.3c0,0.8,0.4,1.5,0.8,1.5s0.8-0.7,0.8-1.5c0-2-0.8-2.8-0.8-2.8S37.6,9.3,37.6,11.3z"/>
						</g>
					</g>
				</g>
				<path d="M37.4,12.8l0.5,0c0.2,0,0.4,0,0.6,0l0.6,0L39,12.4l-0.8-0.2l-0.4,0.4L37.4,12.8z"/>
			</g>
			<path class="st28" d="M39.4,31h-2c-2.8,0-5-2.2-5-5V10.5c0-3.3,2.7-6,6-6h0c3.3,0,6,2.7,6,6V26C44.4,28.8,42.2,31,39.4,31z"/>
			<path class="st35" d="M32.6,17.3c3.9-2.1,7.8-2.1,11.7,0"/>
		</g>
		<line class="st28" x1="15.7" y1="18.1" x2="27.2" y2="18.1"/>
		<polygon points="16.6,17.3 19.8,16 22.8,15.8 26.9,17.4 23.3,17.8 17.2,17.8 		"/>
		<polygon points="33.3,17.3 36.4,16 39.5,15.8 43.6,17.4 40,17.8 33.9,17.8 		"/>
		<line class="st28" x1="32.5" y1="18.1" x2="44" y2="18.1"/>
	</g>
</g>
</svg>
